<svg width="0" height="0" class="hidden">
  <symbol xmlns="http://www.w3.org/2000/svg" viewBox="0 0 28 21" id="youtube">
    <path fill-rule="evenodd" clip-rule="evenodd" d="M27.4156 3.92499C27.2562 3.32001 26.9437 2.76831 26.5094 2.3251C26.075 1.88189 25.5341 1.56271 24.9406 1.39951C22.7562 0.800781 14 0.800781 14 0.800781C14 0.800781 5.24375 0.800781 3.05937 1.39632C2.46569 1.55899 1.92445 1.878 1.49002 2.32129C1.05558 2.76458 0.743248 3.31657 0.584375 3.9218C-1.19209e-07 6.1511 0 10.8008 0 10.8008C0 10.8008 -1.19209e-07 15.4505 0.584375 17.6766C0.90625 18.9059 1.85625 19.874 3.05937 20.2021C5.24375 20.8008 14 20.8008 14 20.8008C14 20.8008 22.7562 20.8008 24.9406 20.2021C26.1469 19.874 27.0938 18.9059 27.4156 17.6766C28 15.4505 28 10.8008 28 10.8008C28 10.8008 28 6.1511 27.4156 3.92499ZM11.2188 15.0683V6.53327L18.4688 10.7689L11.2188 15.0683Z"></path>
  </symbol>
  <symbol xmlns="http://www.w3.org/2000/svg" viewBox="0 0 24 21" id="telegram">
    <path fill-rule="evenodd" clip-rule="evenodd" d="M14.213 3.64606C12.1119 4.51927 7.91145 6.32871 1.61352 9.07258C0.590871 9.47947 0.0543406 9.87737 0.0057288 10.2663C-0.0770913 10.9252 0.747509 11.1845 1.86738 11.5356C2.02042 11.5842 2.17886 11.6328 2.3409 11.6868C3.44456 12.0451 4.92812 12.4646 5.69871 12.4808C6.39908 12.4952 7.18047 12.2071 8.04288 11.6166C13.9267 7.64303 16.964 5.63554 17.1549 5.59233C17.2899 5.56172 17.4772 5.52211 17.6032 5.63554C17.7292 5.74717 17.7166 5.95962 17.704 6.01723C17.6212 6.36472 14.3912 9.36965 12.7168 10.9252C12.1947 11.4095 11.8256 11.7534 11.75 11.8326C11.5807 12.0073 11.4079 12.1747 11.2423 12.335C10.216 13.3216 9.44902 14.0634 11.2855 15.2733C12.1677 15.8548 12.8735 16.3355 13.5774 16.8145C14.3462 17.3384 15.1132 17.8605 16.107 18.5123C16.3591 18.6779 16.6004 18.8489 16.8362 19.0164C17.731 19.6555 18.5358 20.2281 19.5297 20.1381C20.1058 20.084 20.7035 19.5421 21.006 17.9235C21.7208 14.0958 23.1287 5.80658 23.4546 2.38935C23.4744 2.10563 23.4624 1.82058 23.4186 1.53955C23.3924 1.31257 23.2819 1.10372 23.1089 0.954404C22.8515 0.743753 22.4518 0.698742 22.2717 0.702343C21.4597 0.716746 20.2138 1.15065 14.213 3.64606Z"></path>
  </symbol>
  <symbol xmlns="http://www.w3.org/2000/svg" viewBox="0 0 20 20" id="search">
    <path fill-rule="evenodd" clip-rule="evenodd" opacity="0.2" d="M17.1706 15.7291C16.7037 15.2819 16.2493 14.8219 15.8079 14.3496C15.4371 13.9728 15.2138 13.6987 15.2138 13.6987L12.4226 12.366C13.54 11.0988 14.1568 9.46749 14.1571 7.77801C14.1571 3.93157 11.027 0.800781 7.17914 0.800781C3.33129 0.800781 0.201172 3.93157 0.201172 7.77801C0.201172 11.6245 3.33129 14.7552 7.17914 14.7552C8.93659 14.7552 10.5385 14.0974 11.7676 13.0219L13.1004 15.8128C13.1004 15.8128 13.3746 16.0361 13.7514 16.4069C14.1372 16.7687 14.6446 17.2581 15.131 17.7694L16.4848 19.1569L17.0868 19.8008L19.2012 17.6867L18.5572 17.0846C18.1794 16.7139 17.675 16.2215 17.1706 15.7291ZM7.17914 12.7618C4.43082 12.7618 2.19488 10.526 2.19488 7.77801C2.19488 5.02998 4.43082 2.79428 7.17914 2.79428C9.92746 2.79428 12.1634 5.02998 12.1634 7.77801C12.1634 10.526 9.92746 12.7618 7.17914 12.7618Z"></path>
  </symbol>
  <symbol xmlns="http://www.w3.org/2000/svg" viewBox="0 0 21 20" id="kube">
    <path fill-rule="evenodd" clip-rule="evenodd" d="M10.5526 0.782959C13.0913 0.782959 15.526 1.79145 17.3211 3.58657C19.1162 5.38169 20.1247 7.81639 20.1247 10.3551C20.1247 12.8938 19.1162 15.3285 17.3211 17.1236C15.526 18.9187 13.0913 19.9272 10.5526 19.9272C8.0139 19.9272 5.5792 18.9187 3.78408 17.1236C1.98896 15.3285 0.980469 12.8938 0.980469 10.3551C0.980469 7.81639 1.98896 5.38169 3.78408 3.58657C5.5792 1.79145 8.0139 0.782959 10.5526 0.782959ZM17.7596 6.67349C16.8152 4.83713 15.208 3.42842 13.2637 2.73272C13.9175 3.96974 14.3903 5.29511 14.6671 6.67349H17.7596ZM18.6167 11.084C18.6403 10.8418 18.6521 10.5985 18.6521 10.3551C18.6506 9.60776 18.545 8.8643 18.3384 8.14612H14.8895C14.9366 8.63356 14.9705 9.12395 14.9705 9.61876C14.9674 10.6081 14.8658 11.5948 14.6671 12.564H18.3384C18.4783 12.0795 18.5711 11.5847 18.6182 11.084H18.6167ZM13.411 11.084L13.4198 11.0089C13.47 10.5472 13.4961 10.0832 13.4978 9.61876C13.488 9.12618 13.4506 8.63454 13.3859 8.14612H7.71924C7.65403 8.63448 7.61666 9.12615 7.60732 9.61876C7.61091 10.6103 7.72601 11.5982 7.95044 12.564H13.1547C13.2681 12.0751 13.3535 11.5818 13.411 11.084ZM13.1282 6.67349C12.7813 5.11596 12.1551 3.63414 11.2801 2.29977C11.0386 2.27915 10.797 2.25559 10.5526 2.25559C10.3992 2.25634 10.2459 2.26371 10.0931 2.27768L9.8251 2.29977L9.81627 2.3145C8.94583 3.64496 8.32273 5.12164 7.97695 6.67349H13.1282ZM6.43805 6.67349C6.72052 5.29606 7.19961 3.96641 7.86061 2.72536C5.90787 3.41868 4.2931 4.83068 3.34552 6.67349H6.43805ZM2.76677 8.14612C2.56044 8.86436 2.45488 9.60778 2.4531 10.3551C2.45488 11.1024 2.56044 11.8458 2.76677 12.564H6.43805C6.23839 11.5949 6.13676 10.6082 6.13468 9.61876C6.13468 9.12395 6.16855 8.63356 6.21568 8.14612H2.76677ZM6.8224 14.0367H3.34699C3.90366 15.124 4.69846 16.0718 5.67219 16.8094C6.64592 17.5471 7.7735 18.0555 8.97097 18.297C8.02847 17.0028 7.3028 15.5639 6.8224 14.0367ZM10.5526 17.9303C11.4942 16.7656 12.2303 15.4489 12.7291 14.0367H8.37603C8.87487 15.4489 9.61094 16.7656 10.5526 17.9303ZM14.2828 14.0367C13.8023 15.5639 13.0767 17.0028 12.1342 18.297C13.3316 18.0553 14.4591 17.5468 15.4328 16.8092C16.4065 16.0716 17.2013 15.1239 17.7582 14.0367H14.2828Z"></path>
  </symbol>
  <symbol xmlns="http://www.w3.org/2000/svg" viewBox="0 0 14 14" id="kub">
    <path fill-rule="evenodd" clip-rule="evenodd" d="M1.29115 0.279541C0.897898 0.279541 0.579102 0.598337 0.579102 0.991593V5.04739C0.579102 5.44064 0.897898 5.75944 1.29115 5.75944H5.34695C5.7402 5.75944 6.059 5.44064 6.059 5.04739V0.991593C6.059 0.598338 5.7402 0.279541 5.34695 0.279541H1.29115ZM1.29115 7.69648C0.897898 7.69648 0.579102 8.01527 0.579102 8.40853V12.4643C0.579102 12.8576 0.897898 13.1764 1.29115 13.1764H5.34695C5.7402 13.1764 6.059 12.8576 6.059 12.4643V8.40853C6.059 8.01527 5.7402 7.69648 5.34695 7.69648H1.29115ZM7.94161 0.991608C7.94161 0.598353 8.26041 0.279557 8.65366 0.279557H12.7095C13.1027 0.279557 13.4215 0.598353 13.4215 0.991609V5.0474C13.4215 5.44066 13.1027 5.75946 12.7095 5.75946H8.65366C8.26041 5.75946 7.94161 5.44066 7.94161 5.0474V0.991608ZM8.65366 7.69648C8.26041 7.69648 7.94161 8.01527 7.94161 8.40853V12.4643C7.94161 12.8576 8.26041 13.1764 8.65366 13.1764H12.7095C13.1027 13.1764 13.4215 12.8576 13.4215 12.4643V8.40853C13.4215 8.01527 13.1027 7.69648 12.7095 7.69648H8.65366Z"></path>
  </symbol>
  <symbol xmlns="http://www.w3.org/2000/svg" viewBox="0 0 22 23" id="instagram">
    <path fill-rule="evenodd" clip-rule="evenodd" d="M6.465 0.866781C7.638 0.812781 8.012 0.800781 11 0.800781C13.988 0.800781 14.362 0.813781 15.534 0.866781C16.706 0.919781 17.506 1.10678 18.206 1.37778C18.939 1.65478 19.604 2.08778 20.154 2.64778C20.714 3.19678 21.146 3.86078 21.422 4.59478C21.694 5.29478 21.88 6.09478 21.934 7.26478C21.988 8.43978 22 8.81378 22 11.8008C22 14.7888 21.987 15.1628 21.934 16.3358C21.881 17.5058 21.694 18.3058 21.422 19.0058C21.146 19.7399 20.7133 20.405 20.154 20.9548C19.604 21.5148 18.939 21.9468 18.206 22.2228C17.506 22.4948 16.706 22.6808 15.536 22.7348C14.362 22.7888 13.988 22.8008 11 22.8008C8.012 22.8008 7.638 22.7878 6.465 22.7348C5.295 22.6818 4.495 22.4948 3.795 22.2228C3.06092 21.9467 2.39582 21.514 1.846 20.9548C1.28638 20.4055 0.853315 19.7407 0.577 19.0068C0.306 18.3068 0.12 17.5068 0.066 16.3368C0.012 15.1618 0 14.7878 0 11.8008C0 8.81278 0.013 8.43878 0.066 7.26678C0.119 6.09478 0.306 5.29478 0.577 4.59478C0.853723 3.86086 1.28712 3.19609 1.847 2.64678C2.39604 2.08728 3.06047 1.65422 3.794 1.37778C4.494 1.10678 5.294 0.920781 6.464 0.866781H6.465ZM15.445 2.84678C14.285 2.79378 13.937 2.78278 11 2.78278C8.063 2.78278 7.715 2.79378 6.555 2.84678C5.482 2.89578 4.9 3.07478 4.512 3.22578C3.999 3.42578 3.632 3.66278 3.247 4.04778C2.88205 4.40283 2.60118 4.83506 2.425 5.31278C2.274 5.70078 2.095 6.28278 2.046 7.35578C1.993 8.51578 1.982 8.86378 1.982 11.8008C1.982 14.7378 1.993 15.0858 2.046 16.2458C2.095 17.3188 2.274 17.9008 2.425 18.2888C2.601 18.7658 2.882 19.1988 3.247 19.5538C3.602 19.9188 4.035 20.1998 4.512 20.3758C4.9 20.5268 5.482 20.7058 6.555 20.7548C7.715 20.8078 8.062 20.8188 11 20.8188C13.938 20.8188 14.285 20.8078 15.445 20.7548C16.518 20.7058 17.1 20.5268 17.488 20.3758C18.001 20.1758 18.368 19.9388 18.753 19.5538C19.118 19.1988 19.399 18.7658 19.575 18.2888C19.726 17.9008 19.905 17.3188 19.954 16.2458C20.007 15.0858 20.018 14.7378 20.018 11.8008C20.018 8.86378 20.007 8.51578 19.954 7.35578C19.905 6.28278 19.726 5.70078 19.575 5.31278C19.375 4.79978 19.138 4.43278 18.753 4.04778C18.3979 3.68285 17.9657 3.40199 17.488 3.22578C17.1 3.07478 16.518 2.89578 15.445 2.84678ZM9.595 15.1918C10.3797 15.5184 11.2534 15.5625 12.0669 15.3165C12.8805 15.0705 13.5834 14.5497 14.0556 13.843C14.5278 13.1364 14.7401 12.2877 14.656 11.4419C14.572 10.5961 14.197 9.80575 13.595 9.20578C13.2112 8.82226 12.7472 8.52859 12.2363 8.34593C11.7255 8.16326 11.1804 8.09614 10.6405 8.1494C10.1006 8.20265 9.57915 8.37496 9.1138 8.65391C8.64845 8.93287 8.25074 9.31153 7.9493 9.76263C7.64786 10.2137 7.45019 10.7261 7.37052 11.2627C7.29084 11.7994 7.33115 12.3471 7.48854 12.8663C7.64593 13.3855 7.91648 13.8634 8.28072 14.2655C8.64496 14.6676 9.09382 14.984 9.595 15.1918ZM7.002 7.80278C7.52702 7.27776 8.15032 6.86128 8.8363 6.57714C9.52228 6.293 10.2575 6.14676 11 6.14676C11.7425 6.14676 12.4777 6.293 13.1637 6.57714C13.8497 6.86128 14.473 7.27776 14.998 7.80278C15.523 8.32781 15.9395 8.9511 16.2236 9.63708C16.5078 10.3231 16.654 11.0583 16.654 11.8008C16.654 12.5433 16.5078 13.2785 16.2236 13.9645C15.9395 14.6505 15.523 15.2738 14.998 15.7988C13.9377 16.8591 12.4995 17.4548 11 17.4548C9.50046 17.4548 8.06234 16.8591 7.002 15.7988C5.94166 14.7384 5.34597 13.3003 5.34597 11.8008C5.34597 10.3012 5.94166 8.86312 7.002 7.80278ZM17.908 6.98878C18.0381 6.86605 18.1423 6.71846 18.2143 6.55476C18.2863 6.39105 18.3248 6.21455 18.3274 6.03571C18.33 5.85687 18.2967 5.67933 18.2295 5.51359C18.1622 5.34785 18.0624 5.19729 17.936 5.07082C17.8095 4.94435 17.6589 4.84454 17.4932 4.7773C17.3275 4.71006 17.1499 4.67676 16.9711 4.67936C16.7922 4.68197 16.6157 4.72044 16.452 4.79248C16.2883 4.86452 16.1407 4.96868 16.018 5.09878C15.7793 5.35181 15.6486 5.6879 15.6537 6.03571C15.6588 6.38352 15.7992 6.71566 16.0452 6.96162C16.2911 7.20759 16.6233 7.34801 16.9711 7.35308C17.3189 7.35815 17.655 7.22747 17.908 6.98878Z"></path>
  </symbol>
  <symbol xmlns="http://www.w3.org/2000/svg" viewBox="0 0 22 19" id="hamburger">
    <path d="M0 17.5H22" stroke="black" stroke-width="2"></path>
    <path d="M0 9.25H22" stroke="black" stroke-width="2"></path>
    <path d="M0 1H22" stroke="black" stroke-width="2"></path>
  </symbol>
  <symbol xmlns="http://www.w3.org/2000/svg" viewBox="0 0 18 14" id="eye">
    <g opacity="0.4">
      <path d="M11.1544 7.00195C11.1544 7.32976 11.0899 7.65436 10.9644 7.95721C10.839 8.26007 10.6551 8.53525 10.4233 8.76704C10.1915 8.99884 9.91633 9.18271 9.61347 9.30816C9.31061 9.4336 8.98602 9.49817 8.65821 9.49817C8.3304 9.49817 8.0058 9.4336 7.70295 9.30816C7.40009 9.18271 7.12491 8.99884 6.89311 8.76704C6.66132 8.53525 6.47745 8.26007 6.352 7.95721C6.22655 7.65436 6.16199 7.32976 6.16199 7.00195C6.16199 6.33991 6.42498 5.70499 6.89311 5.23685C7.36125 4.76872 7.99617 4.50573 8.65821 4.50573C9.32025 4.50573 9.95517 4.76872 10.4233 5.23685C10.8914 5.70499 11.1544 6.33991 11.1544 7.00195Z"></path>
      <path fill-rule="evenodd" clip-rule="evenodd" d="M8.6582 0.939697C6.21048 0.939697 4.28982 2.03376 2.91404 3.25048C1.54041 4.4665 0.68028 5.82658 0.335088 6.43281C0.235198 6.60611 0.182617 6.80263 0.182617 7.00266C0.182617 7.20269 0.235198 7.39921 0.335088 7.57251C0.68028 8.17874 1.54041 9.53954 2.91404 10.7534C4.29053 11.9701 6.21048 13.0642 8.6582 13.0642C11.1059 13.0642 13.0266 11.9701 14.4024 10.7534C15.776 9.53811 16.6361 8.17802 16.9813 7.5718C17.0812 7.3985 17.1338 7.20198 17.1338 7.00195C17.1338 6.80192 17.0812 6.6054 16.9813 6.4321C16.6361 5.82587 15.776 4.46579 14.4024 3.2512C13.0259 2.03376 11.1059 0.939697 8.6582 0.939697ZM1.2644 6.96272C1.57892 6.4107 2.37058 5.15974 3.62297 4.05284C4.87108 2.94666 6.55068 2.00951 8.6582 2.00951C10.7657 2.00951 12.4446 2.94737 13.6934 4.05213C14.9458 5.15974 15.7375 6.4107 16.052 6.96201C16.0596 6.974 16.0637 6.98779 16.0641 7.00195C16.0637 7.01611 16.0596 7.0299 16.052 7.04189C15.7375 7.59391 14.9458 8.84416 13.6934 9.95177C12.4453 11.0565 10.7657 11.9944 8.6582 11.9944C6.55068 11.9944 4.87179 11.0565 3.62297 9.95177C2.37058 8.84416 1.57892 7.59391 1.2644 7.04189C1.25682 7.02991 1.25263 7.01611 1.25227 7.00195C1.25276 6.98803 1.25694 6.97449 1.2644 6.96272Z"></path>
    </g>
  </symbol>
  <symbol xmlns="http://www.w3.org/2000/svg" viewBox="0 0 13 14" id="downolad">
    <path fill-rule="evenodd" clip-rule="evenodd" d="M0.738281 11.4706H13V13.1309H0.738281V11.4706ZM9.12514 0.869141H4.61314V5.94378H1.79313L6.86914 10.671L11.9452 5.94378H9.12514V0.869141Z"></path>
  </symbol>
  <symbol xmlns="http://www.w3.org/2000/svg" viewBox="0 0 15 10" id="check">
    <path fill-rule="evenodd" clip-rule="evenodd" d="M13.1878 1.0936L7.20149 8.34992L7.15144 8.42307C7.03825 8.6259 7.08646 8.88392 7.2777 9.03261C7.49283 9.19989 7.80752 9.16544 7.98058 8.95568L13.9669 1.69935L14.0169 1.6262C14.1301 1.42337 14.0819 1.16535 13.8907 1.01666C13.6755 0.849387 13.3608 0.883832 13.1878 1.0936ZM9.69884 1.34729L3.98487 8.20753L1.22646 5.77614L1.15461 5.7234C0.953729 5.60199 0.685529 5.63394 0.520218 5.81088C0.334244 6.00994 0.348915 6.31714 0.552986 6.49701L3.70257 9.2732L3.77738 9.32774C3.98668 9.45232 4.26639 9.4107 4.42737 9.21742L10.475 1.95661L10.5254 1.88368C10.6395 1.68137 10.5926 1.42312 10.4021 1.27356C10.1877 1.1053 9.8729 1.13831 9.69884 1.34729Z"></path>
  </symbol>
  <symbol xmlns="http://www.w3.org/2000/svg" viewBox="0 0 15 15" id="chair">
    <path d="M2.625 14.3828C3.2475 14.3828 3.75 13.8803 3.75 13.2578V12.1328H11.25V13.2578C11.25 13.8803 11.7525 14.3828 12.375 14.3828C12.9975 14.3828 13.5 13.8803 13.5 13.2578V11.3828C13.5 10.5578 12.825 9.88281 12 9.88281H3C2.175 9.88281 1.5 10.5578 1.5 11.3828V13.2578C1.5 13.8803 2.0025 14.3828 2.625 14.3828ZM13.5 6.13281H14.25C14.6625 6.13281 15 6.47031 15 6.88281V7.63281C15 8.04531 14.6625 8.38281 14.25 8.38281H13.5C13.0875 8.38281 12.75 8.04531 12.75 7.63281V6.88281C12.75 6.47031 13.0875 6.13281 13.5 6.13281ZM0.75 6.13281H1.5C1.9125 6.13281 2.25 6.47031 2.25 6.88281V7.63281C2.25 8.04531 1.9125 8.38281 1.5 8.38281H0.75C0.3375 8.38281 0 8.04531 0 7.63281V6.88281C0 6.47031 0.3375 6.13281 0.75 6.13281ZM11.25 8.38281H3.75V2.38281C3.75 1.55781 4.425 0.882812 5.25 0.882812H9.75C10.575 0.882812 11.25 1.55781 11.25 2.38281V8.38281Z"></path>
  </symbol>
  <symbol xmlns="http://www.w3.org/2000/svg" viewBox="0 0 19 24" id="book">
    <path fill-rule="evenodd" clip-rule="evenodd" d="M10.9074 18.9683C10.9143 18.9638 10.9213 18.9595 10.9284 18.9552L16.9245 15.334C16.1163 13.503 17.2534 12.2908 17.2534 12.2908C16.6768 13.5273 17.2385 14.6807 17.4563 15.0516C17.7284 14.9856 18.0222 15.0981 18.1732 15.3529C18.3597 15.6673 18.2583 16.0746 17.9468 16.2627L11.613 20.0877C11.1536 20.3854 10.656 20.4613 10.2676 20.4613C9.90792 20.4613 9.64196 20.396 9.58668 20.3814L8.14461 19.9731V18.5951L9.92054 19.0982C9.97398 19.1104 10.5167 19.2248 10.9074 18.9683ZM2.12579 11.8001C4.19954 12.3296 9.4799 13.7786 9.53296 13.7932L9.6027 13.8166C9.63249 13.8278 10.4562 14.1324 11.3421 13.7136L17.6287 10.0128C17.9422 9.82828 18.3448 9.93521 18.5278 10.2516C18.7106 10.5681 18.6047 10.9743 18.2911 11.1589L11.9346 14.8982C10.6335 15.5307 9.4093 15.1543 9.16185 15.0661C8.75567 14.9549 3.7908 13.5937 1.80332 13.0863C1.75356 13.0737 1.69694 13.059 1.58234 13.2902C1.06011 14.3444 1.40573 16.7458 1.78298 17.1166C2.13044 17.2099 2.48747 17.3094 2.78627 17.3936V15.959C2.78627 15.959 2.72046 14.8641 3.57509 15.0302L7.93255 16.052C7.93255 16.052 7.061 16.2256 7.061 16.9885L7.12474 23.2889C7.12474 23.2889 6.82887 23.72 6.40162 23.2889L5.08689 21.8627C5.08689 21.8627 4.7583 21.5642 4.33105 21.8627L3.27922 22.6053C3.27922 22.6053 2.78627 22.924 2.78627 22.128V18.7718C2.44531 18.6745 1.90885 18.5231 1.40132 18.3868C0.0135459 18.0148 -0.224715 14.891 0.173612 13.341C0.630035 11.5657 1.78322 11.713 2.12579 11.8001ZM18.5446 3.29505C18.4895 3.40468 11.9346 7.3068 11.9346 7.3068C10.6335 7.93933 9.4093 7.56286 9.16185 7.47468C8.75568 7.36346 3.7908 6.00225 1.80332 5.49493C1.75356 5.48217 1.69694 5.46758 1.58234 5.69874C1.06011 6.75275 1.40573 9.15399 1.78298 9.52495C2.75012 9.78297 8.83644 11.3698 9.24262 11.4756C9.3604 11.496 10.4751 11.656 11.799 10.8011C13.8955 9.44696 16.2827 7.92584 17.2109 7.33537C16.3597 5.47666 17.5164 4.24225 17.5164 4.24225C16.9297 5.50008 17.5213 6.67206 17.7304 7.02168C18.0164 6.91377 18.3473 7.01899 18.5163 7.28976C18.7096 7.59989 18.6173 8.00936 18.31 8.20446C18.2789 8.22433 15.1588 10.2062 12.5077 11.9183C11.3276 12.6806 10.2375 12.8236 9.58603 12.8236C9.21725 12.8236 8.98916 12.7779 8.9644 12.7726L8.93449 12.7655C8.86757 12.7482 2.23646 11.0195 1.40132 10.7954C0.0135459 10.4233 -0.224715 7.29957 0.173612 5.74963C0.27203 5.36641 0.403049 5.0732 0.55135 4.84915L0.511885 4.8364C0.686046 4.44508 0.896118 4.15199 1.13193 4.01882C2.17542 3.42896 8.62551 0.436763 8.62551 0.436763C9.63334 -0.00544506 10.4843 0.259806 10.4843 0.259806L18.1789 1.98449C19.5394 2.37176 18.8732 3.03887 18.5446 3.29505Z"></path>
  </symbol>
  <symbol xmlns="http://www.w3.org/2000/svg" viewBox="0 0 15 8" id="arrow">
    <path fill-rule="evenodd" clip-rule="evenodd" d="M13.961 4.15433C14.1562 3.95907 14.1562 3.64249 13.961 3.44723L10.779 0.265247C10.5837 0.0699852 10.2671 0.0699852 10.0719 0.265247C9.87663 0.46051 9.87663 0.777092 10.0719 0.972354L12.9003 3.80078L10.0719 6.62921C9.87663 6.82447 9.87663 7.14105 10.0719 7.33632C10.2671 7.53158 10.5837 7.53158 10.779 7.33632L13.961 4.15433ZM0.303711 4.30078H13.6074V3.30078H0.303711V4.30078Z"></path>
  </symbol>
  <symbol viewBox="0 0 14 4" xmlns="http://www.w3.org/2000/svg" id="minmenu">
    <g opacity="0.5">
      <circle cx="2.35333" cy="1.99933" r="1.55841"/>
      <circle cx="6.99884" cy="1.99933" r="1.55841"/>
      <circle cx="11.6502" cy="1.99933" r="1.55841"/>
    </g>
  </symbol>
  <symbol viewBox="0 0 16 15" xmlns="http://www.w3.org/2000/svg" id="copy">
    <path fill-rule="evenodd" clip-rule="evenodd" d="M12.2857 12.8571C12.2857 13.4255 12.0599 13.9705 11.6581 14.3724C11.2562 14.7742 10.7112 15 10.1429 15H2.64286C2.07454 15 1.52949 14.7742 1.12763 14.3724C0.725765 13.9705 0.5 13.4255 0.5 12.8571V5.35714C0.5 4.78882 0.725765 4.24378 1.12763 3.84191C1.52949 3.44005 2.07454 3.21429 2.64286 3.21429V4.28571C2.3587 4.28571 2.08617 4.3986 1.88524 4.59953C1.68431 4.80046 1.57143 5.07298 1.57143 5.35714V12.8571C1.57143 13.1413 1.68431 13.4138 1.88524 13.6148C2.08617 13.8157 2.3587 13.9286 2.64286 13.9286H10.1429C10.427 13.9286 10.6995 13.8157 10.9005 13.6148C11.1014 13.4138 11.2143 13.1413 11.2143 12.8571H12.2857Z"/>
    <path fill-rule="evenodd" clip-rule="evenodd" d="M5.85714 1.07143C5.57298 1.07143 5.30046 1.18431 5.09953 1.38524C4.8986 1.58617 4.78571 1.8587 4.78571 2.14286V9.64286C4.78571 9.92702 4.8986 10.1995 5.09953 10.4005C5.30046 10.6014 5.57298 10.7143 5.85714 10.7143H13.3571C13.6413 10.7143 13.9138 10.6014 14.1148 10.4005C14.3157 10.1995 14.4286 9.92702 14.4286 9.64286V2.14286C14.4286 1.8587 14.3157 1.58617 14.1148 1.38524C13.9138 1.18431 13.6413 1.07143 13.3571 1.07143H5.85714ZM5.85714 0H13.3571C13.9255 0 14.4705 0.225765 14.8724 0.627628C15.2742 1.02949 15.5 1.57454 15.5 2.14286V9.64286C15.5 10.2112 15.2742 10.7562 14.8724 11.1581C14.4705 11.5599 13.9255 11.7857 13.3571 11.7857H5.85714C5.28882 11.7857 4.74378 11.5599 4.34191 11.1581C3.94005 10.7562 3.71429 10.2112 3.71429 9.64286V2.14286C3.71429 1.57454 3.94005 1.02949 4.34191 0.627628C4.74378 0.225765 5.28882 0 5.85714 0Z"/>
  </symbol>
  <symbol viewBox="0 0 16 16" xmlns="http://www.w3.org/2000/svg" id="ear">
    <path fill-rule="evenodd" clip-rule="evenodd" d="M7.68349 15.0214C6.29438 15.0214 5.10935 14.1476 4.64806 12.9197C5.10464 12.3786 5.49681 11.7814 5.81275 11.1399V11.7799C5.81275 12.8131 6.65031 13.6507 7.68349 13.6507C8.55607 13.6507 9.31277 13.0474 9.5072 12.1968C9.86064 10.6505 11.0482 9.63943 11.9916 9.00944C13.0625 8.29436 13.7631 7.0789 13.7631 5.70039C13.7631 3.50497 11.9833 1.72523 9.7879 1.72523C8.14638 1.72523 6.73683 2.7206 6.1304 4.14028C5.93075 3.62013 5.68289 3.12386 5.3923 2.65696C6.35747 1.2656 7.96629 0.354492 9.7879 0.354492C12.7404 0.354492 15.1338 2.74793 15.1338 5.70039C15.1338 7.55602 14.1883 9.19084 12.7529 10.1494C11.8856 10.7285 11.0758 11.4857 10.8435 12.5022C10.5066 13.9762 9.19544 15.0214 7.68349 15.0214ZM11.2545 5.65534C11.2545 6.05723 11.088 6.42023 10.8202 6.6791L11.6823 7.56158C12.1794 7.0787 12.4882 6.40309 12.4882 5.65534C12.4882 4.18772 11.2985 2.99797 9.83084 2.99797C8.36322 2.99797 7.17348 4.18772 7.17348 5.65534C7.17348 5.71315 7.17892 7.20169 7.18318 8.35782C7.18593 9.1041 7.79169 9.70696 8.53797 9.70696C9.28825 9.70696 9.89562 9.0884 9.89276 8.33814C9.89092 7.8592 9.63885 7.41106 9.22812 7.16471L8.41851 6.6791C8.41851 6.6791 8.40714 5.69762 8.40714 5.65534C8.40714 4.86905 9.04456 4.23164 9.83084 4.23164C10.6171 4.23164 11.2545 4.86905 11.2545 5.65534ZM5.40441 7.27689C5.40441 8.92751 4.73532 10.4219 3.65358 11.5035L2.68432 10.5342C3.51801 9.70064 4.03366 8.54899 4.03366 7.27689C4.03366 6.0048 3.51802 4.85315 2.68434 4.01956L3.6536 3.0503C4.73533 4.13195 5.40441 5.62628 5.40441 7.27689ZM2.85957 7.27686C2.85957 8.22474 2.47529 9.08287 1.85403 9.70395L0.884766 8.73469C1.25798 8.36166 1.48883 7.84622 1.48883 7.27686C1.48883 6.70752 1.258 6.1921 0.884819 5.81908L1.85408 4.84982C2.47532 5.4709 2.85957 6.329 2.85957 7.27686Z"/>
  </symbol>
</svg>